<svg xmlns="http://www.w3.org/2000/svg" viewBox="0 0 1920 1040" width="1920" height="1040" font-family="Inter, Arial, sans-serif">

  <defs>
    <marker id="arrow-gray" markerWidth="10" markerHeight="7" refX="9" refY="3.5" orient="auto">
      <polygon points="0 0, 10 3.5, 0 7" fill="#5f6368"/>
    </marker>
    <marker id="arrow-gray-start" markerWidth="10" markerHeight="7" refX="1" refY="3.5" orient="auto-start-reverse">
      <polygon points="0 0, 10 3.5, 0 7" fill="#5f6368"/>
    </marker>
    <marker id="arrow-teal" markerWidth="10" markerHeight="7" refX="9" refY="3.5" orient="auto">
      <polygon points="0 0, 10 3.5, 0 7" fill="#00acc1"/>
    </marker>
    <marker id="arrow-teal-start" markerWidth="10" markerHeight="7" refX="1" refY="3.5" orient="auto-start-reverse">
      <polygon points="0 0, 10 3.5, 0 7" fill="#00acc1"/>
    </marker>
    <marker id="arrow-purple" markerWidth="10" markerHeight="7" refX="9" refY="3.5" orient="auto">
      <polygon points="0 0, 10 3.5, 0 7" fill="#7b1fa2"/>
    </marker>
    <filter id="shadow" x="-4%" y="-4%" width="108%" height="108%">
      <feDropShadow dx="2" dy="2" stdDeviation="4" flood-color="#00000020"/>
    </filter>
  </defs>

  <!-- Background -->
  <rect width="1920" height="1040" fill="#f0f4f8"/>

  <!-- Title -->
  <text x="960" y="42" text-anchor="middle" font-size="24" font-weight="700" fill="#1a1a2e" letter-spacing="0.5">TaleWeaver — System Architecture</text>
  <text x="960" y="64" text-anchor="middle" font-size="12" fill="#5f6368">Voice-first interactive storytelling · Google Cloud Run · Gemini Live API · Vertex AI</text>

  <!-- ════════════════════════════════════════════════════════════════════ -->
  <!-- CHILD COLUMN                                                         -->
  <!-- ════════════════════════════════════════════════════════════════════ -->
  <rect x="20" y="84" width="136" height="868" rx="10" fill="#ffffff" stroke="#bdbdbd" stroke-width="1.5" filter="url(#shadow)"/>
  <rect x="20" y="84" width="136" height="36" rx="10" fill="#37474f"/>
  <rect x="20" y="106" width="136" height="14" fill="#37474f"/>
  <text x="88" y="107" text-anchor="middle" font-size="11" font-weight="700" fill="white">CHILD (User)</text>

  <circle cx="88" cy="170" r="26" fill="#eceff1" stroke="#90a4ae" stroke-width="1.5"/>
  <circle cx="88" cy="159" r="12" fill="#78909c"/>
  <ellipse cx="88" cy="186" rx="16" ry="12" fill="#78909c"/>

  <rect x="58" y="208" width="60" height="16" rx="8" fill="#e3f2fd" stroke="#42a5f5" stroke-width="1"/>
  <text x="88" y="220" text-anchor="middle" font-size="9" fill="#1565c0" font-weight="600">Microphone</text>
  <text x="88" y="244" text-anchor="middle" font-size="9" fill="#546e7a">16kHz PCM</text>
  <text x="88" y="258" text-anchor="middle" font-size="9" fill="#546e7a">audio stream</text>

  <line x1="34" y1="276" x2="142" y2="276" stroke="#e0e0e0" stroke-width="1"/>

  <text x="88" y="298" text-anchor="middle" font-size="8.5" fill="#78909c" font-style="italic">Real-time</text>
  <text x="88" y="312" text-anchor="middle" font-size="8.5" fill="#78909c" font-style="italic">bidirectional</text>
  <text x="88" y="326" text-anchor="middle" font-size="8.5" fill="#78909c" font-style="italic">WebSocket</text>

  <!-- ════════════════════════════════════════════════════════════════════ -->
  <!-- GOOGLE CLOUD RUN BOX                                                 -->
  <!-- ════════════════════════════════════════════════════════════════════ -->
  <rect x="172" y="84" width="648" height="868" rx="12" fill="#e8f0fe" stroke="#4285f4" stroke-width="2" filter="url(#shadow)"/>
  <rect x="172" y="84" width="648" height="40" rx="12" fill="#4285f4"/>
  <rect x="172" y="106" width="648" height="18" fill="#4285f4"/>
  <rect x="184" y="91" width="28" height="20" rx="4" fill="#ffffff33"/>
  <text x="198" y="105" text-anchor="middle" font-size="9" font-weight="700" fill="white">CR</text>
  <text x="496" y="102" text-anchor="middle" font-size="13" font-weight="700" fill="white">Google Cloud Run</text>
  <text x="496" y="116" text-anchor="middle" font-size="9.5" fill="#bbdefb">Single service · Cloud Build CI/CD · Docker multi-stage build · taleweaver.online</text>

  <!-- ── FRONTEND SUB-BOX ── -->
  <rect x="188" y="136" width="618" height="348" rx="8" fill="#fffde7" stroke="#f9a825" stroke-width="1.5"/>
  <rect x="188" y="136" width="618" height="30" rx="8" fill="#f9a825"/>
  <rect x="188" y="152" width="618" height="14" fill="#f9a825"/>
  <rect x="200" y="141" width="22" height="16" rx="3" fill="#ffffff33"/>
  <text x="211" y="153" text-anchor="middle" font-size="9" font-weight="700" fill="white">FE</text>
  <text x="496" y="154" text-anchor="middle" font-size="11" font-weight="700" fill="white">TaleWeaver Frontend  —  React 19 + Vite + TypeScript</text>
  <text x="496" y="168" text-anchor="middle" font-size="9" fill="#795548">TailwindCSS v3 · Framer Motion · AudioWorklet · AudioBufferSourceNode</text>

  <!-- Frontend left column: Audio + hooks -->
  <rect x="196" y="178" width="296" height="292" rx="6" fill="#fff8e1" stroke="#ffca28" stroke-width="1"/>
  <text x="344" y="196" text-anchor="middle" font-size="9.5" font-weight="700" fill="#e65100">Audio Pipeline + Hooks</text>

  <rect x="204" y="206" width="280" height="52" rx="4" fill="#e3f2fd" stroke="#64b5f6" stroke-width="1"/>
  <text x="210" y="220" font-size="8.5" fill="#0d47a1" font-weight="600">CAPTURE</text>
  <text x="210" y="233" font-size="8" fill="#1565c0">Mic → AudioContext(16kHz) → capture.worklet.js</text>
  <text x="210" y="246" font-size="8" fill="#1565c0">Int16 chunks → base64 → WebSocket → Gemini</text>

  <rect x="204" y="264" width="280" height="52" rx="4" fill="#fce4ec" stroke="#f48fb1" stroke-width="1"/>
  <text x="210" y="278" font-size="8.5" fill="#880e4f" font-weight="600">PLAYBACK  (AudioBufferSourceNode)</text>
  <text x="210" y="291" font-size="8" fill="#ad1457">base64 → Float32 → AudioBuffer → scheduled chain</text>
  <text x="210" y="304" font-size="8" fill="#ad1457">Each chunk starts exactly when previous ends · no queue</text>

  <rect x="204" y="322" width="280" height="38" rx="4" fill="#e8f5e9" stroke="#a5d6a7" stroke-width="1"/>
  <text x="210" y="336" font-size="8.5" fill="#1b5e20" font-weight="600">useLiveAPI  —  WebSocket state machine</text>
  <text x="210" y="350" font-size="8" fill="#2e7d32">Session lifecycle · AudioContext resume on mic start · barge-in</text>

  <rect x="204" y="366" width="280" height="38" rx="4" fill="#fff3e0" stroke="#ffcc02" stroke-width="1"/>
  <text x="210" y="380" font-size="8.5" fill="#bf360c" font-weight="600">useStoryImages  —  Image trigger + rate limiting</text>
  <text x="210" y="394" font-size="8" fill="#e64a19">Tool-call path (no rate limit) · fallback every 8s · unlimited scenes</text>

  <rect x="204" y="410" width="280" height="38" rx="4" fill="#e0f7fa" stroke="#80deea" stroke-width="1"/>
  <text x="210" y="424" font-size="8.5" fill="#006064" font-weight="600">PREWARM  —  /api/story-opening</text>
  <text x="210" y="438" font-size="8" fill="#00838f">First image + opening text ready before Begin is clicked</text>
  <text x="210" y="453" font-size="8.5" fill="#aaaaaa" font-style="italic">useLiveAPI.ts · useStoryImages.ts</text>

  <!-- Frontend right column: UI + Screens -->
  <rect x="502" y="178" width="296" height="292" rx="6" fill="#fff8e1" stroke="#ffca28" stroke-width="1"/>
  <text x="650" y="196" text-anchor="middle" font-size="9.5" font-weight="700" fill="#e65100">UI Screens + Components</text>

  <rect x="510" y="206" width="280" height="80" rx="4" fill="#e8eaf6" stroke="#9fa8da" stroke-width="1"/>
  <text x="516" y="220" font-size="8.5" fill="#1a237e" font-weight="600">SCREEN FLOW</text>
  <text x="516" y="233" font-size="8" fill="#283593">LandingPage  →  CharacterSelect (🏠)</text>
  <text x="516" y="246" font-size="8" fill="#283593">→  ThemeSelect (🏠): theme tile / Magic Camera / Sketch</text>
  <text x="516" y="259" font-size="8" fill="#283593">→  StoryScreen (🏠): 1/5 char panel + 4/5 scene canvas</text>
  <text x="516" y="272" font-size="8" fill="#283593">→  StoryRecapModal (inline) → PastAdventuresModal</text>

  <rect x="510" y="292" width="280" height="38" rx="4" fill="#fce4ec" stroke="#f48fb1" stroke-width="1"/>
  <text x="516" y="306" font-size="8.5" fill="#880e4f" font-weight="600">10 CHARACTERS</text>
  <text x="516" y="320" font-size="8" fill="#ad1457">5 English · 5 Indian-language (Hindi/Marathi/Tamil/Telugu/Bengali)</text>

  <rect x="510" y="336" width="280" height="38" rx="4" fill="#f3e5f5" stroke="#ce93d8" stroke-width="1"/>
  <text x="516" y="350" font-size="8.5" fill="#4a148c" font-weight="600">BadgePopup · StorySceneGrid · AudioVisualizer</text>
  <text x="516" y="364" font-size="8" fill="#6a1b9a">Badge queue · shimmer loading cards · waveform display</text>

  <rect x="510" y="380" width="280" height="38" rx="4" fill="#fff3e0" stroke="#ffcc02" stroke-width="1"/>
  <text x="516" y="394" font-size="8.5" fill="#bf360c" font-weight="600">StoryRecapModal  —  /api/story-recap</text>
  <text x="516" y="408" font-size="8" fill="#e64a19">Inline storybook · narration captions · saves title+narrations</text>

  <rect x="510" y="424" width="280" height="38" rx="4" fill="#e8f5e9" stroke="#a5d6a7" stroke-width="1"/>
  <text x="516" y="438" font-size="8.5" fill="#1b5e20" font-weight="600">PastAdventuresModal  —  localStorage gallery</text>
  <text x="516" y="452" font-size="8" fill="#2e7d32">Story cards grid → StorybookView (narrations + badges + The End)</text>
  <text x="510" y="467" font-size="8.5" fill="#aaaaaa" font-style="italic">App.tsx · StoryScreen.tsx · StoryRecapModal.tsx · PastAdventuresModal.tsx</text>

  <!-- ── BACKEND SUB-BOX ── -->
  <rect x="188" y="498" width="618" height="440" rx="8" fill="#e8f5e9" stroke="#34a853" stroke-width="1.5"/>
  <rect x="188" y="498" width="618" height="30" rx="8" fill="#34a853"/>
  <rect x="188" y="514" width="618" height="14" fill="#34a853"/>
  <rect x="200" y="503" width="22" height="16" rx="3" fill="#ffffff33"/>
  <text x="211" y="515" text-anchor="middle" font-size="9" font-weight="700" fill="white">BE</text>
  <text x="496" y="517" text-anchor="middle" font-size="11" font-weight="700" fill="white">FastAPI Backend  —  Python 3.13 · Uvicorn · SPA fallback</text>
  <text x="496" y="529" text-anchor="middle" font-size="9" fill="#c8e6c9">All endpoints stateless · parallel-safe · no stored state</text>

  <!-- Backend left panel: WS Proxy -->
  <rect x="196" y="542" width="296" height="382" rx="6" fill="white" stroke="#34a853" stroke-width="1" stroke-dasharray="5,3"/>
  <rect x="196" y="542" width="296" height="24" rx="6" fill="#43a04720"/>
  <text x="344" y="558" text-anchor="middle" font-size="9" font-weight="700" fill="#1b5e20">WebSocket Proxy + ADK</text>

  <rect x="204" y="572" width="280" height="66" rx="4" fill="#e8f5e9" stroke="#81c784" stroke-width="1"/>
  <text x="210" y="586" font-size="8.5" fill="#1b5e20" font-weight="600">WS  /ws/story  —  proxy.py</text>
  <text x="210" y="599" font-size="8" fill="#2e7d32">Bidirectional audio bridge: browser ↔ Gemini Live</text>
  <text x="210" y="612" font-size="8" fill="#2e7d32">Injects character system prompt + voice config</text>
  <text x="210" y="625" font-size="8" fill="#2e7d32">Sends "Begin!" before proxy starts · 15 min timeout</text>

  <rect x="204" y="644" width="280" height="52" rx="4" fill="#e8f5e9" stroke="#81c784" stroke-width="1"/>
  <text x="210" y="658" font-size="8.5" fill="#1b5e20" font-weight="600">Session Config  —  characters.py</text>
  <text x="210" y="671" font-size="8" fill="#2e7d32">proactive_audio · affective dialog · VAD LOW sensitivity</text>
  <text x="210" y="684" font-size="8" fill="#2e7d32">10 voices · anti-repetition · content safety · no bad input ignored</text>

  <rect x="204" y="702" width="280" height="66" rx="4" fill="#e8f5e9" stroke="#81c784" stroke-width="1"/>
  <text x="210" y="716" font-size="8.5" fill="#1b5e20" font-weight="600">ADK Story Planner  —  story_planner.py</text>
  <text x="210" y="729" font-size="8" fill="#2e7d32">google.adk.agents.LlmAgent</text>
  <text x="210" y="742" font-size="8" fill="#2e7d32">Runner + InMemorySessionService</text>
  <text x="210" y="755" font-size="8" fill="#2e7d32">4-beat story plan per session · returns opening_text hint</text>

  <rect x="204" y="774" width="280" height="38" rx="4" fill="#e8f5e9" stroke="#81c784" stroke-width="1"/>
  <text x="210" y="788" font-size="8.5" fill="#1b5e20" font-weight="600">POST  /api/story-plan</text>
  <text x="210" y="802" font-size="8" fill="#2e7d32">ADK LlmAgent generates story plan → used to seed Gemini Live</text>

  <rect x="204" y="818" width="280" height="38" rx="4" fill="#f1f8e9" stroke="#aed581" stroke-width="1" stroke-dasharray="4,2"/>
  <text x="344" y="832" text-anchor="middle" font-size="8.5" fill="#33691e" font-weight="600">proxy.py · characters.py · story_planner.py</text>
  <text x="344" y="846" text-anchor="middle" font-size="8" fill="#558b2f">WebSocket session orchestration · character configs</text>
  <text x="344" y="870" font-size="8.5" fill="#aaaaaa" font-style="italic">build_gemini_setup_message() · run_proxy_session()</text>

  <!-- Backend right panel: HTTP API -->
  <rect x="502" y="542" width="296" height="382" rx="6" fill="white" stroke="#34a853" stroke-width="1" stroke-dasharray="5,3"/>
  <rect x="502" y="542" width="296" height="24" rx="6" fill="#43a04720"/>
  <text x="650" y="558" text-anchor="middle" font-size="9" font-weight="700" fill="#1b5e20">HTTP API Endpoints  —  image_gen.py · main.py</text>

  <rect x="510" y="572" width="280" height="52" rx="4" fill="#e8f5e9" stroke="#81c784" stroke-width="1"/>
  <text x="516" y="586" font-size="8.5" fill="#1b5e20" font-weight="600">POST  /api/story-opening</text>
  <text x="516" y="599" font-size="8" fill="#2e7d32">Flash Lite: story plan + opening line + first scene description</text>
  <text x="516" y="612" font-size="8" fill="#2e7d32">→ image gen → canvas seeded before Begin click</text>

  <rect x="510" y="630" width="280" height="52" rx="4" fill="#e8f5e9" stroke="#81c784" stroke-width="1"/>
  <text x="516" y="644" font-size="8.5" fill="#1b5e20" font-weight="600">POST  /api/image</text>
  <text x="516" y="657" font-size="8" fill="#2e7d32">Direct image gen from narration or tool call description</text>
  <text x="516" y="670" font-size="8" fill="#2e7d32">prev image + scene passed for visual continuity</text>

  <rect x="510" y="688" width="280" height="38" rx="4" fill="#e8f5e9" stroke="#81c784" stroke-width="1"/>
  <text x="516" y="702" font-size="8.5" fill="#1b5e20" font-weight="600">POST  /api/check-theme</text>
  <text x="516" y="716" font-size="8" fill="#2e7d32">Flash Lite safety check on custom themes → SAFE / UNSAFE</text>

  <rect x="510" y="732" width="280" height="38" rx="4" fill="#e8f5e9" stroke="#81c784" stroke-width="1"/>
  <text x="516" y="746" font-size="8.5" fill="#1b5e20" font-weight="600">POST  /api/sketch-preview</text>
  <text x="516" y="760" font-size="8" fill="#2e7d32">Flash Lite labels sketch → storybook illustration preview</text>

  <rect x="510" y="776" width="280" height="52" rx="4" fill="#e8f5e9" stroke="#81c784" stroke-width="1"/>
  <text x="516" y="790" font-size="8.5" fill="#1b5e20" font-weight="600">POST  /api/story-recap</text>
  <text x="516" y="803" font-size="8" fill="#2e7d32">Receives actual session images (base64) + character context</text>
  <text x="516" y="816" font-size="8" fill="#2e7d32">asyncio.gather → parallel per-image narration → title + captions</text>

  <rect x="510" y="834" width="280" height="38" rx="4" fill="#f1f8e9" stroke="#aed581" stroke-width="1" stroke-dasharray="4,2"/>
  <text x="650" y="848" text-anchor="middle" font-size="8.5" fill="#33691e" font-weight="600">image_gen.py · main.py</text>
  <text x="650" y="862" text-anchor="middle" font-size="8" fill="#558b2f">Narrations + title → saved to localStorage gallery</text>
  <text x="650" y="876" font-size="8.5" fill="#aaaaaa" font-style="italic">_build_scene_prompt() · _build_contents() · _narrate_scene()</text>

  <!-- ════════════════════════════════════════════════════════════════════ -->
  <!-- GEMINI LIVE API BOX                                                  -->
  <!-- ════════════════════════════════════════════════════════════════════ -->
  <rect x="842" y="84" width="400" height="512" rx="12" fill="#e0f7fa" stroke="#00acc1" stroke-width="2" filter="url(#shadow)"/>
  <rect x="842" y="84" width="400" height="40" rx="12" fill="#00acc1"/>
  <rect x="842" y="106" width="400" height="18" fill="#00acc1"/>
  <rect x="854" y="91" width="26" height="20" rx="4" fill="#ffffff33"/>
  <text x="867" y="105" text-anchor="middle" font-size="9" font-weight="700" fill="white">GL</text>
  <text x="1044" y="103" text-anchor="middle" font-size="13" font-weight="700" fill="white">Gemini Live API</text>
  <text x="1044" y="117" text-anchor="middle" font-size="9.5" fill="#b2ebf2">gemini-live-2.5-flash-native-audio  ·  Vertex AI</text>

  <rect x="854" y="132" width="374" height="66" rx="6" fill="#b2ebf2" stroke="#0097a7" stroke-width="1"/>
  <text x="860" y="147" font-size="8.5" fill="#004d40" font-weight="700">Real-time Bidirectional WebSocket</text>
  <text x="860" y="161" font-size="8" fill="#00695c">Input:   16kHz PCM audio stream  (mic → Gemini)</text>
  <text x="860" y="175" font-size="8" fill="#00695c">Output:  24kHz PCM audio + output transcription  (Gemini → speakers)</text>
  <text x="860" y="189" font-size="8" fill="#00695c">Barge-in: child interrupts mid-sentence via VAD</text>

  <rect x="854" y="206" width="374" height="52" rx="6" fill="#b2ebf2" stroke="#0097a7" stroke-width="1"/>
  <text x="860" y="221" font-size="8.5" fill="#004d40" font-weight="700">Session Configuration</text>
  <text x="860" y="235" font-size="8" fill="#00695c">proactive_audio + affective dialog enabled · LOW speech sensitivity</text>
  <text x="860" y="249" font-size="8" fill="#00695c">2s silence timeout · 10 unique voices · system prompt per character</text>

  <rect x="854" y="266" width="374" height="38" rx="6" fill="#b2ebf2" stroke="#0097a7" stroke-width="1"/>
  <text x="860" y="280" font-size="8.5" fill="#004d40" font-weight="700">System Prompt Guarantees</text>
  <text x="860" y="294" font-size="8" fill="#00695c">Anti-repetition · no story ending · content safety call-out · 5-7 sentence flows</text>

  <rect x="854" y="312" width="374" height="16" rx="4" fill="#00838f"/>
  <text x="1042" y="324" text-anchor="middle" font-size="9" font-weight="700" fill="white">Autonomous Tool Calls</text>

  <rect x="854" y="334" width="374" height="72" rx="6" fill="#ffffff" stroke="#00acc1" stroke-width="1.5"/>
  <text x="860" y="350" font-size="9" fill="#006064" font-weight="700">generate_illustration(scene_description)</text>
  <text x="860" y="364" font-size="8" fill="#004d40">Called at: scene changes, character reveals, dramatic moments</text>
  <text x="860" y="378" font-size="8" fill="#004d40">skip_extraction=true — narration passed directly to image model</text>
  <text x="860" y="392" font-size="8" fill="#004d40">Frontend responds immediately — Gemini doesn't wait for image</text>

  <rect x="854" y="412" width="374" height="66" rx="6" fill="#ffffff" stroke="#00acc1" stroke-width="1.5"/>
  <text x="860" y="428" font-size="9" fill="#006064" font-weight="700">award_badge(emoji, name, reason)</text>
  <text x="860" y="442" font-size="8" fill="#004d40">Only on explicit child verbal creativity (story idea, imaginative suggestion)</text>
  <text x="860" y="456" font-size="8" fill="#004d40">Max 2 per session · badge popup overlay auto-dismisses after 3s</text>
  <text x="860" y="470" font-size="8" fill="#004d40">Saved in StoryGalleryEntry.badges → shown in Past Adventures</text>

  <rect x="854" y="486" width="374" height="28" rx="4" fill="#e0f7fa" stroke="#80deea" stroke-width="1"/>
  <text x="1042" y="505" text-anchor="middle" font-size="8.5" fill="#006064" font-weight="600">Model inference via Vertex AI · gemini-live-2.5-flash-native-audio</text>

  <!-- ════════════════════════════════════════════════════════════════════ -->
  <!-- VERTEX AI BOX                                                        -->
  <!-- ════════════════════════════════════════════════════════════════════ -->
  <rect x="1280" y="84" width="620" height="868" rx="12" fill="#f3e5f5" stroke="#7b1fa2" stroke-width="2" filter="url(#shadow)"/>
  <rect x="1280" y="84" width="620" height="40" rx="12" fill="#7b1fa2"/>
  <rect x="1280" y="106" width="620" height="18" fill="#7b1fa2"/>
  <rect x="1294" y="91" width="28" height="20" rx="4" fill="#ffffff33"/>
  <text x="1308" y="105" text-anchor="middle" font-size="9" font-weight="700" fill="white">VAI</text>
  <text x="1590" y="103" text-anchor="middle" font-size="13" font-weight="700" fill="white">Vertex AI — Gemini Models</text>
  <text x="1590" y="117" text-anchor="middle" font-size="9.5" fill="#e1bee7">Google Cloud AI Platform · Application Default Credentials · us-central1</text>

  <!-- Flash Lite section -->
  <rect x="1294" y="134" width="592" height="16" rx="4" fill="#6a1b9a"/>
  <text x="1590" y="146" text-anchor="middle" font-size="9" font-weight="700" fill="white">Gemini 2.5 Flash Lite  (Text + Safety + Planning)</text>

  <rect x="1294" y="156" width="288" height="38" rx="5" fill="#f8bbd9" stroke="#ce93d8" stroke-width="1"/>
  <text x="1300" y="170" font-size="8.5" fill="#4a148c" font-weight="600">Story Opening Generation</text>
  <text x="1300" y="184" font-size="8" fill="#6a1b9a">STORY + SCENE format · coherent plan + opening line</text>

  <rect x="1596" y="156" width="288" height="38" rx="5" fill="#f8bbd9" stroke="#ce93d8" stroke-width="1"/>
  <text x="1602" y="170" font-size="8.5" fill="#4a148c" font-weight="600">Theme Safety Check</text>
  <text x="1602" y="184" font-size="8" fill="#6a1b9a">Custom themes, sketches, camera props → SAFE / UNSAFE</text>

  <rect x="1294" y="200" width="288" height="38" rx="5" fill="#f8bbd9" stroke="#ce93d8" stroke-width="1"/>
  <text x="1300" y="214" font-size="8.5" fill="#4a148c" font-weight="600">Prop / Sketch Label Extraction</text>
  <text x="1300" y="228" font-size="8" fill="#6a1b9a">Camera prop / drawing → storybook illustration label</text>

  <rect x="1596" y="200" width="288" height="38" rx="5" fill="#f8bbd9" stroke="#ce93d8" stroke-width="1"/>
  <text x="1602" y="214" font-size="8.5" fill="#4a148c" font-weight="600">ADK Story Planner</text>
  <text x="1602" y="228" font-size="8" fill="#6a1b9a">4-beat story plan · LlmAgent + Runner + InMemorySessionService</text>

  <line x1="1294" y1="248" x2="1886" y2="248" stroke="#ce93d8" stroke-width="1.5"/>

  <!-- Image Generation section -->
  <rect x="1294" y="258" width="592" height="16" rx="4" fill="#6a1b9a"/>
  <text x="1590" y="270" text-anchor="middle" font-size="9" font-weight="700" fill="white">Image Generation  (Gemini Flash Image Preview)</text>

  <rect x="1294" y="280" width="288" height="38" rx="5" fill="#e1bee7" stroke="#ce93d8" stroke-width="1"/>
  <text x="1300" y="294" font-size="8.5" fill="#4a148c" font-weight="600">Input</text>
  <text x="1300" y="308" font-size="8" fill="#6a1b9a">scene_description (from tool call or turn text) + story context</text>

  <rect x="1596" y="280" width="288" height="38" rx="5" fill="#e1bee7" stroke="#ce93d8" stroke-width="1"/>
  <text x="1602" y="294" font-size="8.5" fill="#4a148c" font-weight="600">Visual Continuity</text>
  <text x="1602" y="308" font-size="8" fill="#6a1b9a">Previous image + scene description passed as reference</text>

  <rect x="1294" y="324" width="288" height="38" rx="5" fill="#e1bee7" stroke="#ce93d8" stroke-width="1"/>
  <text x="1300" y="338" font-size="8.5" fill="#4a148c" font-weight="600">Output</text>
  <text x="1300" y="352" font-size="8" fill="#6a1b9a">4:3 storybook illustration · base64 PNG/JPEG</text>

  <rect x="1596" y="324" width="288" height="38" rx="5" fill="#e1bee7" stroke="#ce93d8" stroke-width="1"/>
  <text x="1602" y="338" font-size="8.5" fill="#4a148c" font-weight="600">Safety</text>
  <text x="1602" y="352" font-size="8" fill="#6a1b9a">SAFETY_PREFIX on all prompts · character image_style descriptor</text>

  <rect x="1294" y="368" width="592" height="38" rx="5" fill="#e1bee7" stroke="#ce93d8" stroke-width="1"/>
  <text x="1300" y="382" font-size="8.5" fill="#4a148c" font-weight="600">Rate Limiting + Retry</text>
  <text x="1300" y="396" font-size="8" fill="#6a1b9a">Retry once on 500 · 8s minimum between fallback images · tool calls bypass all limits</text>

  <line x1="1294" y1="416" x2="1886" y2="416" stroke="#ce93d8" stroke-width="1.5"/>

  <!-- Story Recap section -->
  <rect x="1294" y="426" width="592" height="16" rx="4" fill="#6a1b9a"/>
  <text x="1590" y="438" text-anchor="middle" font-size="9" font-weight="700" fill="white">Gemini Flash  (Story Recap Narration)</text>

  <rect x="1294" y="448" width="288" height="38" rx="5" fill="#e1bee7" stroke="#ce93d8" stroke-width="1"/>
  <text x="1300" y="462" font-size="8.5" fill="#4a148c" font-weight="600">Input</text>
  <text x="1300" y="476" font-size="8" fill="#6a1b9a">Actual session images (base64) + character name + style</text>

  <rect x="1596" y="448" width="288" height="38" rx="5" fill="#e1bee7" stroke="#ce93d8" stroke-width="1"/>
  <text x="1602" y="462" font-size="8.5" fill="#4a148c" font-weight="600">Execution</text>
  <text x="1602" y="476" font-size="8" fill="#6a1b9a">asyncio.gather · parallel _narrate_scene() per image</text>

  <rect x="1294" y="492" width="288" height="38" rx="5" fill="#e1bee7" stroke="#ce93d8" stroke-width="1"/>
  <text x="1300" y="506" font-size="8.5" fill="#4a148c" font-weight="600">Narration</text>
  <text x="1300" y="520" font-size="8" fill="#6a1b9a">Each image narrated in character voice · 2 sentences · no hallucination</text>

  <rect x="1596" y="492" width="288" height="38" rx="5" fill="#e1bee7" stroke="#ce93d8" stroke-width="1"/>
  <text x="1602" y="506" font-size="8.5" fill="#4a148c" font-weight="600">Output Saved to Gallery</text>
  <text x="1602" y="520" font-size="8" fill="#6a1b9a">recapTitle + narrations[] patched into localStorage gallery entry</text>

  <line x1="1294" y1="540" x2="1886" y2="540" stroke="#ce93d8" stroke-width="1.5"/>

  <!-- GCP Auth + Safety -->
  <rect x="1294" y="550" width="288" height="66" rx="5" fill="#f8bbd9" stroke="#ce93d8" stroke-width="1"/>
  <text x="1438" y="566" text-anchor="middle" font-size="8.5" fill="#4a148c" font-weight="700">GCP Authentication</text>
  <text x="1300" y="580" font-size="8" fill="#6a1b9a">Application Default Credentials</text>
  <text x="1300" y="594" font-size="8" fill="#6a1b9a">GEMINI_API_KEY from Secret Manager</text>
  <text x="1300" y="608" font-size="8" fill="#6a1b9a">Region: us-central1</text>

  <rect x="1596" y="550" width="288" height="66" rx="5" fill="#f8bbd9" stroke="#ce93d8" stroke-width="1"/>
  <text x="1740" y="566" text-anchor="middle" font-size="8.5" fill="#4a148c" font-weight="700">Image Safety</text>
  <text x="1602" y="580" font-size="8" fill="#6a1b9a">SAFETY_PREFIX on every image prompt</text>
  <text x="1602" y="594" font-size="8" fill="#6a1b9a">child-safe · no violence · no adult themes</text>
  <text x="1602" y="608" font-size="8" fill="#6a1b9a">character image_style per character</text>

  <!-- ════════════════════════════════════════════════════════════════════ -->
  <!-- DATA FLOW ARROWS                                                     -->
  <!-- ════════════════════════════════════════════════════════════════════ -->

  <!-- 1. User ↔ Frontend: Voice (bidirectional) -->
  <line x1="156" y1="224" x2="172" y2="224" stroke="#5f6368" stroke-width="1.5" stroke-dasharray="6,4"
        marker-end="url(#arrow-gray)" marker-start="url(#arrow-gray-start)"/>
  <rect x="104" y="204" width="66" height="22" rx="3" fill="#ffffffcc"/>
  <text x="137" y="216" text-anchor="middle" font-size="7.5" fill="#37474f" font-weight="600">Voice</text>
  <text x="137" y="225" text-anchor="middle" font-size="7" fill="#546e7a">16kHz PCM</text>

  <!-- 2. Frontend ↔ Backend: Internal WebSocket -->
  <line x1="398" y1="488" x2="398" y2="498" stroke="#5f6368" stroke-width="1.5" stroke-dasharray="6,4"
        marker-end="url(#arrow-gray)" marker-start="url(#arrow-gray-start)"/>
  <rect x="314" y="490" width="130" height="16" rx="3" fill="#ffffffcc"/>
  <text x="379" y="501" text-anchor="middle" font-size="8" fill="#37474f" font-weight="600">Internal WebSocket</text>

  <!-- 3. Backend ↔ Gemini Live: WebSocket audio proxy (curve from right side of CR to left of GL) -->
  <path d="M 820 660 C 836 660 836 310 842 310" fill="none" stroke="#00acc1" stroke-width="2" stroke-dasharray="7,4"
        marker-end="url(#arrow-teal)" marker-start="url(#arrow-teal-start)"/>
  <rect x="826" y="456" width="52" height="40" rx="3" fill="#e0f7facc"/>
  <text x="852" y="469" text-anchor="middle" font-size="7.5" fill="#006064" font-weight="600">WS audio</text>
  <text x="852" y="480" text-anchor="middle" font-size="7" fill="#00838f">proxy</text>
  <text x="852" y="490" text-anchor="middle" font-size="7" fill="#00838f">real-time</text>

  <!-- 4. Gemini Live → Backend: Tool call responses -->
  <path d="M 842 456 C 826 456 826 756 820 756" fill="none" stroke="#5f6368" stroke-width="1.5" stroke-dasharray="6,4"
        marker-end="url(#arrow-gray)"/>
  <rect x="822" y="596" width="60" height="52" rx="3" fill="#ffffffcc"/>
  <text x="852" y="610" text-anchor="middle" font-size="7.5" fill="#37474f" font-weight="600">Tool calls</text>
  <text x="852" y="622" text-anchor="middle" font-size="7" fill="#546e7a">generate_</text>
  <text x="852" y="632" text-anchor="middle" font-size="7" fill="#546e7a">illustration</text>
  <text x="852" y="642" text-anchor="middle" font-size="7" fill="#546e7a">award_badge</text>

  <!-- 5. Backend → Vertex AI: HTTP API calls -->
  <line x1="820" y1="836" x2="1278" y2="836" stroke="#5f6368" stroke-width="1.5" stroke-dasharray="6,4"
        marker-end="url(#arrow-gray)"/>
  <rect x="926" y="820" width="208" height="32" rx="3" fill="#ffffffcc"/>
  <text x="1030" y="832" text-anchor="middle" font-size="7.5" fill="#37474f" font-weight="600">HTTP (image · opening · safety · sketch · recap)</text>
  <text x="1030" y="844" text-anchor="middle" font-size="7" fill="#546e7a">narrations + title returned → saved to gallery</text>

  <!-- 6. Gemini Live ↔ Vertex AI: Model inference -->
  <line x1="1242" y1="310" x2="1278" y2="310" stroke="#7b1fa2" stroke-width="2"
        marker-end="url(#arrow-gray)" marker-start="url(#arrow-gray-start)"/>
  <rect x="1246" y="290" width="54" height="24" rx="3" fill="#f3e5f5cc"/>
  <text x="1273" y="303" text-anchor="middle" font-size="7.5" fill="#4a148c" font-weight="600">Model</text>
  <text x="1273" y="311" text-anchor="middle" font-size="7" fill="#6a1b9a">inference</text>

  <!-- ════════════════════════════════════════════════════════════════════ -->
  <!-- LEGEND                                                               -->
  <!-- ════════════════════════════════════════════════════════════════════ -->
  <rect x="20" y="976" width="580" height="50" rx="6" fill="white" stroke="#e0e0e0" stroke-width="1"/>
  <text x="34" y="994" font-size="9" font-weight="700" fill="#37474f">Legend:</text>

  <line x1="90" y1="988" x2="140" y2="988" stroke="#5f6368" stroke-width="1.5" stroke-dasharray="6,4" marker-end="url(#arrow-gray)"/>
  <text x="148" y="992" font-size="8.5" fill="#546e7a">HTTP / WebSocket</text>

  <line x1="90" y1="1012" x2="140" y2="1012" stroke="#7b1fa2" stroke-width="2" marker-end="url(#arrow-gray)"/>
  <text x="148" y="1016" font-size="8.5" fill="#546e7a">Model inference (solid, purple)</text>

  <line x1="270" y1="988" x2="320" y2="988" stroke="#00acc1" stroke-width="2" stroke-dasharray="6,4"
        marker-end="url(#arrow-teal)" marker-start="url(#arrow-teal-start)"/>
  <text x="328" y="992" font-size="8.5" fill="#546e7a">Bidirectional stream</text>

  <rect x="270" y="1003" width="12" height="12" rx="2" fill="#fffde7" stroke="#f9a825" stroke-width="1"/>
  <text x="286" y="1014" font-size="8.5" fill="#546e7a">Frontend</text>
  <rect x="336" y="1003" width="12" height="12" rx="2" fill="#e8f5e9" stroke="#34a853" stroke-width="1"/>
  <text x="352" y="1014" font-size="8.5" fill="#546e7a">Backend</text>
  <rect x="402" y="1003" width="12" height="12" rx="2" fill="#e0f7fa" stroke="#00acc1" stroke-width="1"/>
  <text x="418" y="1014" font-size="8.5" fill="#546e7a">Gemini Live</text>
  <rect x="478" y="1003" width="12" height="12" rx="2" fill="#f3e5f5" stroke="#7b1fa2" stroke-width="1"/>
  <text x="494" y="1014" font-size="8.5" fill="#546e7a">Vertex AI</text>

  <text x="1900" y="1030" text-anchor="end" font-size="8" fill="#9e9e9e">TaleWeaver Architecture · v2026.03</text>

</svg>
