<svg xmlns="http://www.w3.org/2000/svg" viewBox="0 0 1440 762" width="1440" height="762"
     font-family="system-ui,-apple-system,'Segoe UI',Roboto,Arial,sans-serif">
<defs>
  <marker id="mBlue" markerWidth="7" markerHeight="7" refX="5.5" refY="3.5" orient="auto">
    <path d="M0,1 L6,3.5 L0,6 Z" fill="#4285F4"/>
  </marker>
  <marker id="mGray" markerWidth="7" markerHeight="7" refX="5.5" refY="3.5" orient="auto">
    <path d="M0,1 L6,3.5 L0,6 Z" fill="#5F6368"/>
  </marker>
  <marker id="mPurple" markerWidth="7" markerHeight="7" refX="5.5" refY="3.5" orient="auto">
    <path d="M0,1 L6,3.5 L0,6 Z" fill="#7C3AED"/>
  </marker>
  <marker id="mGreen" markerWidth="7" markerHeight="7" refX="5.5" refY="3.5" orient="auto">
    <path d="M0,1 L6,3.5 L0,6 Z" fill="#16A34A"/>
  </marker>
  <marker id="mOrange" markerWidth="7" markerHeight="7" refX="5.5" refY="3.5" orient="auto">
    <path d="M0,1 L6,3.5 L0,6 Z" fill="#D97706"/>
  </marker>
  <filter id="sh" x="-6%" y="-6%" width="118%" height="118%">
    <feDropShadow dx="0" dy="2" stdDeviation="4" flood-color="#00000014"/>
  </filter>
</defs>

<!-- ░░ BACKGROUND ░░ -->
<rect width="1440" height="762" fill="#FFFFFF"/>

<!-- ░░ TITLE ░░ -->
<text x="720" y="24" text-anchor="middle" font-size="14" font-weight="700" fill="#202124" letter-spacing="0.3">TaleWeaver  ·  Architecture Overview</text>

<!-- ════════════════════════════════════════ -->
<!-- USER                                    -->
<!-- ════════════════════════════════════════ -->
<circle cx="60" cy="258" r="23" fill="#E8F0FE" stroke="#4285F4" stroke-width="1.5"/>
<circle cx="60" cy="251" r="8" fill="#4285F4"/>
<path d="M44,276 C44,262 76,262 76,276" fill="#4285F4"/>
<text x="60" y="297" text-anchor="middle" font-size="11" font-weight="700" fill="#202124">Child</text>
<text x="60" y="312" text-anchor="middle" font-size="9.5" fill="#5F6368">TaleWeaver Web App</text>

<!-- User → Cloud Run -->
<line x1="87" y1="262" x2="133" y2="262" stroke="#4285F4" stroke-width="1.5" marker-end="url(#mBlue)"/>

<!-- ════════════════════════════════════════ -->
<!-- CLOUD RUN CONTAINER                     -->
<!-- ════════════════════════════════════════ -->
<rect x="138" y="38" width="780" height="492" rx="12" fill="#F8FBFF" stroke="#4285F4" stroke-width="1.5" filter="url(#sh)"/>
<rect x="138" y="38" width="780" height="30" rx="10" fill="#1A73E8"/>
<rect x="138" y="54"  width="780" height="14" fill="#1A73E8"/>
<text x="160" y="58" font-size="11" font-weight="700" fill="#FFFFFF">☁  Google Cloud Run  ·  TaleWeaver Service</text>

<!-- ════════════════════════════════════════ -->
<!-- REACT FRONTEND BOX                      -->
<!-- x=155 … x=443   y=76 … y=474            -->
<!-- ════════════════════════════════════════ -->
<rect x="155" y="76" width="288" height="398" rx="8" fill="#FFFFFF" stroke="#4285F4" stroke-width="1.5" filter="url(#sh)"/>
<!-- Blue header -->
<rect x="155" y="76" width="288" height="28" rx="6" fill="#4285F4"/>
<rect x="155" y="89"  width="288" height="15" fill="#4285F4"/>
<text x="299" y="94" text-anchor="middle" font-size="11" font-weight="700" fill="#FFFFFF">⚛  React Frontend</text>

<!-- Bullets -->
<text x="168" y="121" font-size="10.5" fill="#202124">●  Character selection</text>
<text x="168" y="138" font-size="10.5" fill="#202124">●  Mode  (Theme · Camera · Sketch)</text>
<text x="168" y="155" font-size="10.5" fill="#202124">●  Story screen  (voice + illustrations)</text>
<text x="168" y="172" font-size="10.5" fill="#202124">●  Storybook recap + gallery</text>

<!-- Divider -->
<line x1="165" y1="181" x2="433" y2="181" stroke="#E8EAED" stroke-width="1"/>

<!-- Input Systems sub-box -->
<rect x="163" y="187" width="272" height="108" rx="6" fill="#EBF2FF" stroke="#4285F4" stroke-width="1" stroke-dasharray="5,3"/>
<text x="299" y="203" text-anchor="middle" font-size="9.5" font-weight="700" fill="#1A73E8">Input Systems</text>
<text x="174" y="221" font-size="10" fill="#202124">🎤  Mic capture  ·  16 kHz</text>
<text x="174" y="239" font-size="10" fill="#202124">📷  Camera input</text>
<text x="174" y="257" font-size="10" fill="#202124">✏️  Sketch canvas</text>

<!-- ── Frontend → Backend Arrow ── -->
<line x1="444" y1="275" x2="513" y2="275" stroke="#4285F4" stroke-width="1.5" marker-end="url(#mBlue)"/>
<text x="478" y="267" text-anchor="middle" font-size="8" font-weight="600" fill="#1A73E8">/ws/story</text>
<text x="478" y="287" text-anchor="middle" font-size="7.5" fill="#5F6368">voice stream + events</text>

<!-- ── Frontend → Output Arrow ── -->
<line x1="299" y1="475" x2="299" y2="547" stroke="#16A34A" stroke-width="1.5" marker-end="url(#mGreen)"/>
<text x="313" y="514" font-size="8" fill="#16A34A" font-weight="600">storybook</text>

<!-- ════════════════════════════════════════ -->
<!-- FASTAPI BACKEND BOX                     -->
<!-- x=515 … x=898   y=76 … y=474            -->
<!-- ════════════════════════════════════════ -->
<rect x="515" y="76" width="383" height="398" rx="8" fill="#FFFFFF" stroke="#5F6368" stroke-width="1.5" filter="url(#sh)"/>
<!-- Gray header -->
<rect x="515" y="76" width="383" height="28" rx="6" fill="#5F6368"/>
<rect x="515" y="89"  width="383" height="15" fill="#5F6368"/>
<text x="706" y="94" text-anchor="middle" font-size="11" font-weight="700" fill="#FFFFFF">⚙  FastAPI Backend</text>

<!-- Bullets -->
<text x="528" y="121" font-size="10.5" fill="#202124">●  WebSocket proxy</text>
<text x="528" y="138" font-size="10.5" fill="#202124">●  Session orchestration</text>
<text x="528" y="155" font-size="10.5" fill="#202124">●  Story state manager</text>
<text x="528" y="172" font-size="10.5" fill="#202124">●  Gemini tool routing</text>

<!-- Divider -->
<line x1="525" y1="181" x2="888" y2="181" stroke="#E8EAED" stroke-width="1"/>

<!-- API Endpoints sub-box -->
<rect x="523" y="187" width="367" height="155" rx="6" fill="#F1F3F4" stroke="#9AA0A6" stroke-width="1" stroke-dasharray="5,3"/>
<text x="706" y="203" text-anchor="middle" font-size="9.5" font-weight="700" fill="#3C4043">API Endpoints</text>
<text x="534" y="221" font-size="9.5" fill="#444746" font-family="'Courier New',Courier,monospace">/ws/story</text>
<text x="534" y="238" font-size="9.5" fill="#444746" font-family="'Courier New',Courier,monospace">/api/image</text>
<text x="534" y="255" font-size="9.5" fill="#444746" font-family="'Courier New',Courier,monospace">/api/check-theme</text>
<text x="534" y="272" font-size="9.5" fill="#444746" font-family="'Courier New',Courier,monospace">/api/tts</text>
<text x="534" y="289" font-size="9.5" fill="#444746" font-family="'Courier New',Courier,monospace">/api/story-recap</text>

<!-- ════════════════════════════════════════ -->
<!-- BACKEND → GEMINI ARROWS                 -->
<!-- (drawn before Gemini container so       -->
<!--  arrowheads sit in the gap zone)        -->
<!-- ════════════════════════════════════════ -->

<!-- → Gemini Live  (y=128) -->
<line x1="900" y1="128" x2="936" y2="128" stroke="#7C3AED" stroke-width="1.5" marker-end="url(#mPurple)"/>
<text x="918" y="120" text-anchor="middle" font-size="7.5" font-weight="600" fill="#7C3AED">Live voice session</text>

<!-- → Gemini Image  (y=243) -->
<line x1="900" y1="243" x2="936" y2="243" stroke="#7C3AED" stroke-width="1.5" marker-end="url(#mPurple)"/>
<text x="918" y="235" text-anchor="middle" font-size="7.5" font-weight="600" fill="#7C3AED">generate_illustration</text>

<!-- → Gemini Flash Lite  (y=358) -->
<line x1="900" y1="358" x2="936" y2="358" stroke="#7C3AED" stroke-width="1.5" marker-end="url(#mPurple)"/>
<text x="918" y="350" text-anchor="middle" font-size="7.5" font-weight="600" fill="#7C3AED">safety + recap</text>

<!-- → Gemini TTS  (y=472) -->
<line x1="900" y1="472" x2="936" y2="472" stroke="#7C3AED" stroke-width="1.5" marker-end="url(#mPurple)"/>
<text x="918" y="464" text-anchor="middle" font-size="7.5" font-weight="600" fill="#7C3AED">character voice</text>

<!-- ════════════════════════════════════════ -->
<!-- OUTPUT BOX — Illustrated Storybook      -->
<!-- x=155 … x=443   y=549 … y=699           -->
<!-- ════════════════════════════════════════ -->
<rect x="155" y="549" width="288" height="150" rx="8" fill="#FFFFFF" stroke="#16A34A" stroke-width="1.5" filter="url(#sh)"/>
<!-- Green header -->
<rect x="155" y="549" width="288" height="28" rx="6" fill="#16A34A"/>
<rect x="155" y="562"  width="288" height="15" fill="#16A34A"/>
<text x="299" y="567" text-anchor="middle" font-size="11" font-weight="700" fill="#FFFFFF">📖  Illustrated Storybook</text>

<text x="168" y="595" font-size="10.5" fill="#202124">●  Scene illustrations</text>
<text x="168" y="612" font-size="10.5" fill="#202124">●  Narration captions</text>
<text x="168" y="629" font-size="10.5" fill="#202124">●  Achievement badges</text>
<text x="168" y="646" font-size="10.5" fill="#202124">●  Past adventures gallery</text>

<!-- Output badge pill -->
<rect x="370" y="676" width="66" height="17" rx="8.5" fill="#DCFCE7"/>
<text x="403" y="688" text-anchor="middle" font-size="8.5" font-weight="700" fill="#16A34A">✓ Output</text>

<!-- ════════════════════════════════════════ -->
<!-- GEMINI CONTAINER                        -->
<!-- x=940 … x=1418   y=38 … y=530           -->
<!-- ════════════════════════════════════════ -->
<rect x="940" y="38" width="478" height="492" rx="12" fill="#FAF5FF" stroke="#7C3AED" stroke-width="1.5" filter="url(#sh)"/>
<!-- Purple header -->
<rect x="940" y="38" width="478" height="30" rx="10" fill="#7C3AED"/>
<rect x="940" y="54"  width="478" height="14" fill="#7C3AED"/>
<text x="962" y="58" font-size="10.5" font-weight="700" fill="#FFFFFF">✦  Google Gemini APIs  ·  Vertex AI + Gemini API</text>

<!-- ── Gemini Live API  y=76..179  center=127 ── -->
<rect x="957" y="76" width="443" height="103" rx="7" fill="#FFFFFF" stroke="#7C3AED" stroke-width="1.5"/>
<rect x="957" y="76" width="443" height="22" rx="5" fill="#7C3AED"/>
<rect x="957" y="88"  width="443" height="10" fill="#7C3AED"/>
<text x="1178" y="91" text-anchor="middle" font-size="10" font-weight="700" fill="#FFFFFF">Gemini Live API</text>
<!-- Model pill -->
<rect x="963" y="101" width="246" height="15" rx="3" fill="#F3E8FF"/>
<text x="967" y="113" font-size="8.5" fill="#6D28D9" font-family="'Courier New',Courier,monospace">gemini-live-2.5-flash-native-audio</text>
<!-- Tool trigger badge -->
<rect x="1216" y="101" width="178" height="15" rx="3" fill="#FEF3C7"/>
<text x="1305" y="113" text-anchor="middle" font-size="7.5" font-weight="700" fill="#B45309">⚡ triggers generate_illustration</text>
<!-- Bullets -->
<text x="963" y="131" font-size="9.5" fill="#202124">●  Real-time voice conversation  ·  Story narration engine</text>
<text x="963" y="146" font-size="9.5" fill="#202124">●  Barge-in interruption  ·  Tool calls → image generation</text>

<!-- ── Gemini Image Model  y=191..294  center=242 ── -->
<rect x="957" y="191" width="443" height="103" rx="7" fill="#FFFFFF" stroke="#7C3AED" stroke-width="1.5"/>
<rect x="957" y="191" width="443" height="22" rx="5" fill="#7C3AED"/>
<rect x="957" y="203"  width="443" height="10" fill="#7C3AED"/>
<text x="1178" y="206" text-anchor="middle" font-size="10" font-weight="700" fill="#FFFFFF">Gemini Image Model</text>
<rect x="963" y="216" width="220" height="15" rx="3" fill="#F3E8FF"/>
<text x="967" y="228" font-size="8.5" fill="#6D28D9" font-family="'Courier New',Courier,monospace">gemini-2.0-flash-preview-image-generation</text>
<text x="963" y="248" font-size="9.5" fill="#202124">●  Scene illustrations  ·  Visual continuity</text>
<text x="963" y="263" font-size="9.5" fill="#202124">●  Camera + sketch images  ·  Tool call from Gemini Live</text>

<!-- ── Gemini Flash Lite  y=306..409  center=357 ── -->
<rect x="957" y="306" width="443" height="103" rx="7" fill="#FFFFFF" stroke="#7C3AED" stroke-width="1.5"/>
<rect x="957" y="306" width="443" height="22" rx="5" fill="#7C3AED"/>
<rect x="957" y="318"  width="443" height="10" fill="#7C3AED"/>
<text x="1178" y="321" text-anchor="middle" font-size="10" font-weight="700" fill="#FFFFFF">Gemini Flash Lite</text>
<rect x="963" y="331" width="180" height="15" rx="3" fill="#F3E8FF"/>
<text x="967" y="343" font-size="8.5" fill="#6D28D9" font-family="'Courier New',Courier,monospace">gemini-2.5-flash-lite</text>
<text x="963" y="363" font-size="9.5" fill="#202124">●  Content moderation  ·  Theme + sketch safety</text>
<text x="963" y="378" font-size="9.5" fill="#202124">●  Story recap captions</text>

<!-- ── Gemini TTS  y=421..524  center=472 ── -->
<rect x="957" y="421" width="443" height="103" rx="7" fill="#FFFFFF" stroke="#7C3AED" stroke-width="1.5"/>
<rect x="957" y="421" width="443" height="22" rx="5" fill="#7C3AED"/>
<rect x="957" y="433"  width="443" height="10" fill="#7C3AED"/>
<text x="1178" y="436" text-anchor="middle" font-size="10" font-weight="700" fill="#FFFFFF">Gemini TTS</text>
<rect x="963" y="446" width="238" height="15" rx="3" fill="#F3E8FF"/>
<text x="967" y="458" font-size="8.5" fill="#6D28D9" font-family="'Courier New',Courier,monospace">gemini-2.5-flash-preview-tts</text>
<text x="963" y="478" font-size="9.5" fill="#202124">●  Character voice synthesis</text>
<text x="963" y="493" font-size="9.5" fill="#202124">●  Prop / sketch labels</text>

<!-- ── Tool-call internal arrow: Live → Image ── -->
<line x1="1390" y1="180" x2="1390" y2="190" stroke="#D97706" stroke-width="1.5" stroke-dasharray="3,2" marker-end="url(#mOrange)"/>
<text x="1395" y="187" font-size="7.5" fill="#D97706" font-weight="600">tool call</text>

<!-- ════════════════════════════════════════ -->
<!-- LEGEND                                  -->
<!-- ════════════════════════════════════════ -->
<rect x="138" y="718" width="820" height="28" rx="6" fill="#F8F9FA" stroke="#E8EAED" stroke-width="1"/>

<circle cx="158" cy="732" r="5" fill="#4285F4"/>
<text x="168" y="736" font-size="9" fill="#5F6368">React Frontend</text>

<circle cx="278" cy="732" r="5" fill="#5F6368"/>
<text x="288" y="736" font-size="9" fill="#5F6368">FastAPI Backend</text>

<circle cx="400" cy="732" r="5" fill="#7C3AED"/>
<text x="410" y="736" font-size="9" fill="#5F6368">Gemini APIs</text>

<circle cx="497" cy="732" r="5" fill="#16A34A"/>
<text x="507" y="736" font-size="9" fill="#5F6368">Output</text>

<line x1="558" y1="732" x2="578" y2="732" stroke="#5F6368" stroke-width="1.5" marker-end="url(#mGray)"/>
<text x="583" y="736" font-size="9" fill="#5F6368">Data flow</text>

<line x1="644" y1="732" x2="664" y2="732" stroke="#D97706" stroke-width="1.5" stroke-dasharray="3,2" marker-end="url(#mOrange)"/>
<text x="669" y="736" font-size="9" fill="#5F6368">Tool call (Gemini Live → Image)</text>

<line x1="826" y1="732" x2="846" y2="732" stroke="#5F6368" stroke-width="1" stroke-dasharray="5,3"/>
<text x="851" y="736" font-size="9" fill="#5F6368">Sub-component</text>

</svg>