<svg xmlns="http://www.w3.org/2000/svg" xmlns:xlink="http://www.w3.org/1999/xlink" viewBox="0 0 1540 760" width="100%" height="100%">
  <defs>
    <marker id="arrow-gray" viewBox="0 -5 10 10" refX="8" refY="0" markerWidth="6" markerHeight="6" orient="auto">
      <path d="M0,-5 L10,0 L0,5" fill="#64748b" />
    </marker>
    <marker id="arrow-purple" viewBox="0 -5 10 10" refX="8" refY="0" markerWidth="6" markerHeight="6" orient="auto">
      <path d="M0,-5 L10,0 L0,5" fill="#9333ea" />
    </marker>

    <filter id="shadow" x="-5%" y="-5%" width="110%" height="110%">
      <feDropShadow dx="0" dy="2" stdDeviation="4" flood-color="#0f172a" flood-opacity="0.06" />
    </filter>

    <clipPath id="clip-frontend"><rect x="260" y="140" width="220" height="350" rx="8"/></clipPath>
    <clipPath id="clip-backend"><rect x="640" y="140" width="220" height="350" rx="8"/></clipPath>
    <clipPath id="clip-output"><rect x="260" y="550" width="220" height="150" rx="8"/></clipPath>
    <clipPath id="clip-live"><rect x="1060" y="140" width="440" height="130" rx="8"/></clipPath>
    <clipPath id="clip-image"><rect x="1060" y="295" width="440" height="130" rx="8"/></clipPath>
    <clipPath id="clip-lite"><rect x="1060" y="450" width="440" height="110" rx="8"/></clipPath>
    <clipPath id="clip-tts"><rect x="1060" y="585" width="440" height="95" rx="8"/></clipPath>
  </defs>

  <style>
    text { font-family: 'Inter', 'Segoe UI', 'Roboto', sans-serif; }
    .title { font-weight: 700; }
    .mono { font-family: 'Fira Code', 'Courier New', monospace; font-weight: 600; }
    .bullet { fill: #334155; font-size: 13px; }
    .label { fill: #64748b; font-size: 11px; }
    .label-bold { fill: #475569; font-size: 11px; font-weight: 600; }
    .endpoint { font-family: 'Fira Code', monospace; fill: #2563eb; font-size: 11.5px; }
  </style>

  <rect width="100%" height="100%" fill="#ffffff" />

  <!-- User -->
  <g id="user-group">
    <circle cx="90" cy="245" r="22" fill="#e0e7ff" stroke="#4f46e5" stroke-width="1.5" />
    <!-- Head -->
    <circle cx="90" cy="238" r="7" fill="#4f46e5" />
    <!-- Shoulders -->
    <path d="M 76 260 Q 76 249 90 249 Q 104 249 104 260 Z" fill="#4f46e5" />
    <text x="90" y="285" class="title" font-size="14" text-anchor="middle" fill="#0f172a">Child</text>
    <text x="90" y="305" font-size="12" text-anchor="middle" fill="#475569">TaleWeaver Web App</text>
    <path d="M 140 250 L 230 250" stroke="#64748b" stroke-width="1.5" marker-end="url(#arrow-gray)" />
  </g>

  <!-- Cloud Run container -->
  <g id="app-container">
    <rect x="240" y="60" width="640" height="450" rx="12" fill="#f8fafc" stroke="#3b82f6" stroke-width="1.5" stroke-dasharray="6,4" />
    <text x="260" y="90" class="title" font-size="16" fill="#2563eb">Google Cloud Run</text>
    <image href="gcp-icons/cloud-run-svgrepo-com.svg" x="425" y="73" width="24" height="24" />
    <text x="260" y="110" font-size="13" fill="#64748b">TaleWeaver Service</text>

    <!-- Frontend box -->
    <g id="frontend-box">
      <rect x="260" y="140" width="220" height="350" rx="8" fill="#ffffff" stroke="#93c5fd" stroke-width="1.5" filter="url(#shadow)" />
      <rect x="260" y="140" width="220" height="40" fill="#eff6ff" clip-path="url(#clip-frontend)" />
      <text x="275" y="165" class="title" font-size="14" fill="#1d4ed8">React Frontend</text>
      <text x="275" y="200" class="bullet">• Character selection</text>
      <text x="275" y="225" class="bullet">• Mode selection</text>
      <text x="290" y="243" font-size="11" fill="#64748b">(Theme / Camera / Sketch)</text>
      <text x="275" y="265" class="bullet">• Story screen</text>
      <text x="290" y="283" font-size="11" fill="#64748b">(Voice + illustrations)</text>
      <text x="275" y="305" class="bullet">• Storybook recap</text>
      <line x1="275" y1="325" x2="465" y2="325" stroke="#e2e8f0" stroke-width="1" />
      <text x="275" y="350" font-size="12" font-weight="600" fill="#475569">Input Systems:</text>
      <text x="275" y="375" class="bullet">• Mic capture (16 kHz)</text>
      <text x="275" y="400" class="bullet">• Camera input</text>
      <text x="275" y="425" class="bullet">• Sketch canvas</text>
    </g>

    <!-- Arrow: frontend → backend -->
    <path d="M 480 230 L 630 230" stroke="#64748b" stroke-width="1.5" marker-end="url(#arrow-gray)" />
    <text x="555" y="205" font-family="monospace" font-size="11" text-anchor="middle" fill="#2563eb" font-weight="600">WebSocket /ws/story</text>
    <text x="555" y="220" class="label" text-anchor="middle">Voice stream + events</text>
    <text x="555" y="248" class="label" text-anchor="middle">Camera / Theme inputs</text>

    <!-- Backend box -->
    <g id="backend-box">
      <rect x="640" y="140" width="220" height="350" rx="8" fill="#ffffff" stroke="#cbd5e1" stroke-width="1.5" filter="url(#shadow)" />
      <rect x="640" y="140" width="220" height="40" fill="#f1f5f9" clip-path="url(#clip-backend)" />
      <text x="655" y="165" class="title" font-size="14" fill="#334155">FastAPI Backend</text>
      <text x="655" y="200" class="bullet">• WebSocket proxy</text>
      <text x="655" y="225" class="bullet">• Session orchestration</text>
      <text x="655" y="250" class="bullet">• Story state manager</text>
      <text x="655" y="275" class="bullet">• Gemini tool routing</text>
      <line x1="655" y1="295" x2="845" y2="295" stroke="#e2e8f0" stroke-width="1" />
      <text x="655" y="313" class="endpoint">/api/health</text>
      <text x="655" y="331" class="endpoint">/ws/story</text>
      <text x="655" y="349" class="endpoint">/api/image</text>
      <text x="655" y="367" class="endpoint">/api/sketch-preview</text>
      <text x="655" y="385" class="endpoint">/api/check-theme</text>
      <text x="655" y="403" class="endpoint">/api/tts</text>
      <text x="655" y="421" class="endpoint">/api/story-recap</text>
    </g>
  </g>

  <!-- Illustrated Storybook output -->
  <g id="output-box">
    <path d="M 370 490 L 370 540" stroke="#64748b" stroke-width="1.5" marker-end="url(#arrow-gray)" />
    <rect x="260" y="550" width="220" height="150" rx="8" fill="#ffffff" stroke="#86efac" stroke-width="1.5" filter="url(#shadow)" />
    <rect x="260" y="550" width="220" height="40" fill="#f0fdf4" clip-path="url(#clip-output)" />
    <text x="275" y="575" class="title" font-size="14" fill="#166534">Illustrated Storybook</text>
    <text x="275" y="610" class="bullet">• Scene illustrations</text>
    <text x="275" y="635" class="bullet">• Narration captions</text>
    <text x="275" y="660" class="bullet">• Achievement badges</text>
    <text x="275" y="685" class="bullet">• Past adventures gallery</text>
  </g>

  <!-- Gemini APIs container — shifted to x=1040 for breathing room -->
  <g id="gemini-container">
    <rect x="1040" y="60" width="480" height="650" rx="12" fill="#faf5ff" stroke="#a855f7" stroke-width="1.5" stroke-dasharray="6,4" />
    <text x="1060" y="90" class="title" font-size="16" fill="#7e22ce">Google Gemini APIs</text>
    <image href="gcp-icons/Google_Gemini_icon_2025.svg" x="1235" y="73" width="24" height="24" />
    <image href="gcp-icons/vertexai-svgrepo-com.svg"    x="1263" y="73" width="24" height="24" />
    <text x="1060" y="110" font-size="13" fill="#9333ea">Vertex AI + Gemini API</text>

    <g id="live-box">
      <rect x="1060" y="140" width="440" height="130" rx="8" fill="#ffffff" stroke="#d8b4fe" stroke-width="1.5" filter="url(#shadow)" />
      <rect x="1060" y="140" width="440" height="35" fill="#f3e8ff" clip-path="url(#clip-live)" />
      <text x="1075" y="162" class="mono" font-size="13" fill="#6b21a8">gemini-live-2.5-flash-native-audio</text>
      <text x="1075" y="195" class="bullet">• Real-time voice conversation</text>
      <text x="1075" y="215" class="bullet">• Story narration engine</text>
      <text x="1075" y="235" class="bullet">• Barge-in interruption</text>
      <text x="1075" y="255" class="bullet">• Tool calls (generate_illustration, awardBadge)</text>
    </g>

    <!-- generate_illustration tool call → image box (dashed) -->
    <path d="M 1280 270 L 1280 294" stroke="#9333ea" stroke-width="1.5" stroke-dasharray="4,3" marker-end="url(#arrow-purple)" fill="none" />
    <text x="1288" y="284" font-size="11" font-weight="600" fill="#9333ea">Tool call: generate_illustration</text>

    <g id="image-box">
      <rect x="1060" y="295" width="440" height="130" rx="8" fill="#ffffff" stroke="#d8b4fe" stroke-width="1.5" filter="url(#shadow)" />
      <rect x="1060" y="295" width="440" height="35" fill="#f3e8ff" clip-path="url(#clip-image)" />
      <text x="1075" y="317" class="mono" font-size="13" fill="#6b21a8">gemini-3.1-flash-image-preview</text>
      <text x="1075" y="350" class="bullet">• Story scene illustrations (via tool call)</text>
      <text x="1075" y="370" class="bullet">• Visual continuity (prev. image as context)</text>
      <text x="1075" y="390" class="bullet">• Sketch preview (direct call)</text>
      <text x="1075" y="410" class="bullet">• Magic Camera reimagining (direct call)</text>
    </g>

    <g id="lite-box">
      <rect x="1060" y="450" width="440" height="110" rx="8" fill="#ffffff" stroke="#d8b4fe" stroke-width="1.5" filter="url(#shadow)" />
      <rect x="1060" y="450" width="440" height="35" fill="#f3e8ff" clip-path="url(#clip-lite)" />
      <text x="1075" y="472" class="mono" font-size="13" fill="#6b21a8">gemini-2.5-flash-lite</text>
      <text x="1075" y="505" class="bullet">• Content moderation</text>
      <text x="1075" y="525" class="bullet">• Theme + sketch safety</text>
      <text x="1075" y="545" class="bullet">• Story recap captions</text>
    </g>

    <g id="tts-box">
      <rect x="1060" y="585" width="440" height="95" rx="8" fill="#ffffff" stroke="#d8b4fe" stroke-width="1.5" filter="url(#shadow)" />
      <rect x="1060" y="585" width="440" height="35" fill="#f3e8ff" clip-path="url(#clip-tts)" />
      <text x="1075" y="607" class="mono" font-size="13" fill="#6b21a8">gemini-2.5-flash-preview-tts</text>
      <text x="1075" y="640" class="bullet">• Character voice synthesis</text>
      <text x="1075" y="660" class="bullet">• Prop / sketch labels</text>
    </g>
  </g>

  <!-- Arrows: backend (right edge x=860) → Gemini services (left edge x=1040) — 180px gap -->

  <!-- → Gemini Live (realtime voice) -->
  <text x="950" y="188" class="label-bold" text-anchor="middle" fill="#7e22ce">Realtime storytelling</text>
  <text x="950" y="201" class="label" text-anchor="middle">Live voice session</text>
  <path d="M 860 208 L 1050 208" stroke="#64748b" stroke-width="1.5" marker-end="url(#arrow-gray)" />

  <!-- → Image gen (sketch / camera): direct dotted arrow from backend -->
  <text x="950" y="344" class="label-bold" text-anchor="middle" fill="#7e22ce">Sketch / Camera Preview</text>
  <path d="M 860 350 L 1050 350" stroke="#64748b" stroke-width="1.5" stroke-dasharray="4,3" marker-end="url(#arrow-gray)" fill="none" />

  <!-- → Flash Lite (moderation + recap): Z-shape bend at x=960 -->
  <text x="900" y="408" class="label-bold" fill="#7e22ce">Moderation + recap</text>
  <text x="900" y="421" class="label" fill="#64748b">safety + captions</text>
  <path d="M 860 426 L 960 426 L 960 505 L 1050 505" stroke="#64748b" stroke-width="1.5" marker-end="url(#arrow-gray)" fill="none" />

  <!-- → Flash TTS (character voice): L-shape from bottom of backend box -->
  <path d="M 750 490 L 750 635 L 1050 635" stroke="#64748b" stroke-width="1.5" marker-end="url(#arrow-gray)" fill="none" />
  <text x="758" y="572" class="label-bold" fill="#7e22ce">Character voice</text>

</svg>
