<svg xmlns="http://www.w3.org/2000/svg" viewBox="0 0 1760 980" width="1760" height="980"
  font-family="'Segoe UI', system-ui, -apple-system, sans-serif">
  <defs>
    <filter id="card" x="-5%" y="-5%" width="110%" height="120%">
      <feDropShadow dx="0" dy="2" stdDeviation="4" flood-color="#00000010"/>
    </filter>
    <filter id="outer" x="-4%" y="-4%" width="108%" height="114%">
      <feDropShadow dx="0" dy="4" stdDeviation="10" flood-color="#0000000e"/>
    </filter>
    <marker id="a-slate"  markerWidth="8" markerHeight="8" refX="6" refY="3" orient="auto"><path d="M0,0 L0,6 L8,3z" fill="#94a3b8"/></marker>
    <marker id="a-indigo" markerWidth="8" markerHeight="8" refX="6" refY="3" orient="auto"><path d="M0,0 L0,6 L8,3z" fill="#6366f1"/></marker>
    <marker id="a-violet" markerWidth="8" markerHeight="8" refX="6" refY="3" orient="auto"><path d="M0,0 L0,6 L8,3z" fill="#7c3aed"/></marker>
    <marker id="a-green"  markerWidth="8" markerHeight="8" refX="6" refY="3" orient="auto"><path d="M0,0 L0,6 L8,3z" fill="#16a34a"/></marker>
    <marker id="a-red"    markerWidth="8" markerHeight="8" refX="6" refY="3" orient="auto"><path d="M0,0 L0,6 L8,3z" fill="#ef4444"/></marker>
    <marker id="a-amber"  markerWidth="8" markerHeight="8" refX="6" refY="3" orient="auto"><path d="M0,0 L0,6 L8,3z" fill="#d97706"/></marker>
    <marker id="a-return" markerWidth="8" markerHeight="8" refX="2" refY="3" orient="auto"><path d="M8,0 L8,6 L0,3z" fill="#6366f1"/></marker>
    <marker id="a-down"   markerWidth="8" markerHeight="8" refX="3" refY="7" orient="auto"><path d="M0,0 L6,0 L3,8z" fill="#16a34a"/></marker>
    <pattern id="dots" width="24" height="24" patternUnits="userSpaceOnUse">
      <circle cx="1" cy="1" r="1" fill="#cbd5e1" opacity="0.5"/>
    </pattern>
    <!-- Cloud Run hexagon clip -->
    <clipPath id="hex-clip">
      <polygon points="12,0 24,7 24,21 12,28 0,21 0,7"/>
    </clipPath>
  </defs>

  <!-- ░ BACKGROUND ░ -->
  <rect width="1760" height="980" fill="#f1f5f9"/>
  <rect width="1760" height="980" fill="url(#dots)"/>

  <!-- ░ TITLE ░ -->
  <rect x="0" y="0" width="1760" height="88" fill="white" opacity="0.9"/>
  <text x="880" y="40" text-anchor="middle" font-size="24" font-weight="700" fill="#0f172a" letter-spacing="-0.5">TaleWeaver — System Architecture</text>
  <text x="880" y="64" text-anchor="middle" font-size="13" fill="#64748b">Voice-first interactive storytelling for kids · Powered by Google Gemini</text>
  <line x1="0" y1="88" x2="1760" y2="88" stroke="#e2e8f0" stroke-width="1.5"/>

  <!-- ═══════════════════════════════════════════════════════════
       CLOUD RUN CONTAINER  (wraps Frontend + Backend)
       x=210, y=108, w=720, h=760
  ═══════════════════════════════════════════════════════════ -->
  <rect x="210" y="108" width="720" height="760" rx="22" fill="white"
        stroke="#4285f4" stroke-width="2" stroke-dasharray="9,5" filter="url(#outer)"/>

  <!-- Cloud Run logo + label (top-left of container) -->
  <g transform="translate(228,122)">
    <!-- Hexagon shape (Cloud Run icon) -->
    <polygon points="16,0 32,9 32,27 16,36 0,27 0,9" fill="#4285f4"/>
    <polygon points="16,4 28,11 28,25 16,32 4,25 4,11" fill="#1a73e8"/>
    <!-- Arrow inside hex -->
    <polygon points="10,18 16,10 22,18 19,18 19,26 13,26 13,18" fill="white"/>
  </g>
  <text x="270" y="137" font-size="13" font-weight="700" fill="#1a73e8">Cloud Run</text>
  <text x="270" y="152" font-size="10" fill="#4285f4">Single service · Frontend + Backend</text>

  <!-- ─── REACT FRONTEND  x=228 y=172 w=276 h=500 ─── -->
  <rect x="228" y="172" width="276" height="500" rx="16" fill="#eff6ff" stroke="#93c5fd" stroke-width="1.5" filter="url(#card)"/>
  <!-- browser icon -->
  <rect x="244" y="184" width="26" height="19" rx="3" fill="#bfdbfe" stroke="#93c5fd" stroke-width="1"/>
  <rect x="244" y="184" width="26" height="7" rx="3" fill="#3b82f6"/>
  <circle cx="248" cy="187" r="1.5" fill="white"/>
  <circle cx="253" cy="187" r="1.5" fill="white"/>
  <circle cx="258" cy="187" r="1.5" fill="white"/>
  <text x="280" y="199" font-size="14" font-weight="700" fill="#1d4ed8">React Frontend</text>
  <line x1="238" y1="209" x2="494" y2="209" stroke="#bfdbfe" stroke-width="1.5"/>
  <text x="242" y="230" font-size="11" fill="#1e40af">🎤  Voice capture (16 kHz PCM)</text>
  <text x="242" y="252" font-size="11" fill="#1e40af">🎨  Canvas drawing / Sketch</text>
  <text x="242" y="274" font-size="11" fill="#1e40af">📷  Magic Camera input</text>
  <text x="242" y="296" font-size="11" fill="#1e40af">📖  Story UI + scene grid</text>
  <text x="242" y="318" font-size="11" fill="#1e40af">🔊  24 kHz audio playback</text>
  <text x="242" y="340" font-size="11" fill="#1e40af">🖼  AI illustration display</text>
  <text x="242" y="362" font-size="11" fill="#1e40af">🏆  Badge popup overlay</text>
  <text x="242" y="384" font-size="11" fill="#1e40af">📚  Story recap storybook</text>
  <text x="242" y="406" font-size="11" fill="#1e40af">💾  localStorage gallery</text>
  <line x1="238" y1="422" x2="494" y2="422" stroke="#bfdbfe" stroke-width="1"/>
  <text x="242" y="440" font-size="9.5" fill="#3b82f6" font-style="italic">React 19 · Vite · TypeScript</text>
  <text x="242" y="456" font-size="9.5" fill="#3b82f6" font-style="italic">TailwindCSS · Framer Motion</text>
  <text x="242" y="472" font-size="9.5" fill="#3b82f6" font-style="italic">Web Audio API · AudioWorklet</text>
  <text x="242" y="488" font-size="9.5" fill="#3b82f6" font-style="italic">WebSocket · useLiveAPI hook</text>
  <text x="242" y="504" font-size="9.5" fill="#3b82f6" font-style="italic">AudioBufferSourceNode scheduling</text>
  <text x="242" y="520" font-size="9.5" fill="#3b82f6" font-style="italic">Framer Motion animations</text>
  <text x="242" y="536" font-size="9.5" fill="#3b82f6" font-style="italic">React Context · custom hooks</text>
  <text x="242" y="554" font-size="9.5" fill="#3b82f6" font-style="italic">Vite build · Tailwind v3</text>
  <text x="242" y="570" font-size="9.5" fill="#3b82f6" font-style="italic">Safari AudioContext compat</text>
  <text x="242" y="586" font-size="9.5" fill="#3b82f6" font-style="italic">Pause / Resume · Home button</text>
  <text x="242" y="602" font-size="9.5" fill="#3b82f6" font-style="italic">15-min session timeout</text>
  <text x="242" y="618" font-size="9.5" fill="#3b82f6" font-style="italic">CharacterSelect · ThemeSelect</text>
  <text x="242" y="634" font-size="9.5" fill="#3b82f6" font-style="italic">StoryScreen · StoryRecapModal</text>
  <text x="242" y="650" font-size="9.5" fill="#3b82f6" font-style="italic">PastAdventuresModal · Gallery</text>
  <text x="242" y="666" font-size="9.5" fill="#3b82f6" font-style="italic">MagicCamera · SketchCanvas</text>

  <!-- ─── FASTAPI BACKEND  x=532 y=172 w=380 h=680 ─── -->
  <rect x="532" y="172" width="380" height="680" rx="16" fill="white" stroke="#cbd5e1" stroke-width="1.5" filter="url(#card)"/>
  <!-- server icon -->
  <rect x="548" y="184" width="26" height="19" rx="3" fill="#e0e7ff" stroke="#a5b4fc" stroke-width="1"/>
  <line x1="548" y1="190" x2="574" y2="190" stroke="#a5b4fc" stroke-width="1"/>
  <line x1="548" y1="196" x2="574" y2="196" stroke="#a5b4fc" stroke-width="1"/>
  <circle cx="570" cy="187" r="2" fill="#6366f1"/>
  <circle cx="570" cy="193" r="2" fill="#6366f1"/>
  <circle cx="570" cy="199" r="2" fill="#6366f1"/>
  <text x="584" y="199" font-size="14" font-weight="700" fill="#1e293b">FastAPI Backend</text>
  <line x1="542" y1="210" x2="902" y2="210" stroke="#f1f5f9" stroke-width="1.5"/>
  <text x="546" y="232" font-size="11" fill="#374151">⚡  WebSocket server</text>
  <text x="546" y="254" font-size="11" fill="#374151">🎭  Session orchestration</text>
  <text x="546" y="276" font-size="11" fill="#374151">📡  Bidirectional audio proxy</text>
  <text x="546" y="298" font-size="11" fill="#374151">🗂  Story state manager</text>
  <text x="546" y="320" font-size="11" fill="#374151">🖼  Image generation requests</text>
  <text x="546" y="342" font-size="11" fill="#374151">🛡  Content moderation calls</text>
  <text x="546" y="368" font-size="9.5" fill="#9ca3af" font-style="italic">Python 3.13 · FastAPI · uvicorn · uvloop</text>
  <text x="546" y="383" font-size="9.5" fill="#9ca3af" font-style="italic">asyncio · h11 · single worker · Cloud Run</text>
  <line x1="542" y1="396" x2="902" y2="396" stroke="#f1f5f9" stroke-width="1.5"/>
  <text x="722" y="415" text-anchor="middle" font-size="9" fill="#94a3b8" font-weight="700" letter-spacing="1.5">ROUTES</text>
  <!-- route pills -->
  <rect x="546" y="424" width="274" height="22" rx="6" fill="#f8fafc" stroke="#e2e8f0" stroke-width="1"/>
  <text x="683" y="439" text-anchor="middle" font-size="10" fill="#475569" font-family="monospace">WS   /ws/story</text>
  <rect x="546" y="452" width="274" height="22" rx="6" fill="#f8fafc" stroke="#e2e8f0" stroke-width="1"/>
  <text x="683" y="467" text-anchor="middle" font-size="10" fill="#475569" font-family="monospace">POST /api/image</text>
  <rect x="546" y="480" width="274" height="22" rx="6" fill="#f8fafc" stroke="#e2e8f0" stroke-width="1"/>
  <text x="683" y="495" text-anchor="middle" font-size="10" fill="#475569" font-family="monospace">POST /api/check-theme</text>
  <rect x="546" y="508" width="274" height="22" rx="6" fill="#f8fafc" stroke="#e2e8f0" stroke-width="1"/>
  <text x="683" y="523" text-anchor="middle" font-size="10" fill="#475569" font-family="monospace">POST /api/story-recap</text>
  <rect x="546" y="536" width="274" height="22" rx="6" fill="#f8fafc" stroke="#e2e8f0" stroke-width="1"/>
  <text x="683" y="551" text-anchor="middle" font-size="10" fill="#475569" font-family="monospace">POST /api/tts</text>
  <rect x="546" y="564" width="274" height="22" rx="6" fill="#f8fafc" stroke="#e2e8f0" stroke-width="1"/>
  <text x="683" y="579" text-anchor="middle" font-size="10" fill="#475569" font-family="monospace">POST /api/sketch-preview</text>
  <rect x="546" y="592" width="274" height="22" rx="6" fill="#f8fafc" stroke="#e2e8f0" stroke-width="1"/>
  <text x="683" y="607" text-anchor="middle" font-size="10" fill="#475569" font-family="monospace">GET  /  (SPA static files)</text>
  <line x1="542" y1="626" x2="902" y2="626" stroke="#f1f5f9" stroke-width="1.5"/>
  <!-- Proxy badge -->
  <rect x="546" y="638" width="274" height="44" rx="10" fill="#ede9fe" stroke="#c4b5fd" stroke-width="1.2"/>
  <text x="683" y="656" text-anchor="middle" font-size="11.5" fill="#5b21b6" font-weight="700">Gemini Live Proxy</text>
  <text x="683" y="673" text-anchor="middle" font-size="9.5" fill="#6d28d9">asyncio bidirectional audio relay</text>
  <text x="546" y="714" font-size="9.5" fill="#9ca3af" font-style="italic">GCP Application Default Credentials</text>
  <text x="546" y="728" font-size="9.5" fill="#9ca3af" font-style="italic">GEMINI_API_KEY via Secret Manager</text>
  <text x="546" y="742" font-size="9.5" fill="#9ca3af" font-style="italic">SIGTERM graceful shutdown (30s)</text>
  <text x="546" y="756" font-size="9.5" fill="#9ca3af" font-style="italic">Cloud Build CI/CD · Artifact Registry</text>
  <text x="546" y="770" font-size="9.5" fill="#9ca3af" font-style="italic">Multi-stage Docker · Node 22 + Python 3.13</text>
  <text x="546" y="784" font-size="9.5" fill="#9ca3af" font-style="italic">taleweaver.online · custom domain</text>
  <text x="546" y="798" font-size="9.5" fill="#9ca3af" font-style="italic">Secrets Manager · uvloop · h11</text>
  <text x="546" y="812" font-size="9.5" fill="#9ca3af" font-style="italic">Session timeout 15 min · CORS</text>
  <text x="546" y="826" font-size="9.5" fill="#9ca3af" font-style="italic">WebSocket close frame on SIGTERM</text>

  <!-- Exit dots on backend right edge (y centers of each Gemini service) -->
  <!-- Live:  y=278,  Image: y=438,  Flash: y=598,  TTS: y=758 -->
  <circle cx="914" cy="278" r="5.5" fill="#7c3aed"/>
  <circle cx="914" cy="438" r="5.5" fill="#16a34a"/>
  <circle cx="914" cy="598" r="5.5" fill="#ef4444"/>
  <circle cx="914" cy="758" r="5.5" fill="#d97706"/>

  <!-- ═══════════════════════════════════════════════════════════
       GEMINI + VERTEX AI CONTAINER
       x=960, y=108, w=766, h=800
  ═══════════════════════════════════════════════════════════ -->
  <rect x="960" y="108" width="766" height="846" rx="22" fill="white"
        stroke="#a855f7" stroke-width="2" stroke-dasharray="9,5" filter="url(#outer)"/>

  <!-- Gemini 4-pointed star logo -->
  <g transform="translate(978, 118)">
    <!-- 4-pointed star / sparkle shape -->
    <path d="M16,0 C16,0 18,12 28,16 C18,20 16,32 16,32 C16,32 14,20 4,16 C14,12 16,0 16,0 Z" fill="#8b5cf6"/>
    <path d="M16,6 C16,6 17.5,13 22,16 C17.5,19 16,26 16,26 C16,26 14.5,19 10,16 C14.5,13 16,6 16,6 Z" fill="#a78bfa" opacity="0.5"/>
  </g>

  <!-- Vertex AI logo (small diamond V) -->
  <g transform="translate(1020, 120)">
    <polygon points="14,0 28,8 28,24 14,32 0,24 0,8" fill="none" stroke="#4285f4" stroke-width="2"/>
    <text x="14" y="22" text-anchor="middle" font-size="14" font-weight="800" fill="#4285f4">V</text>
  </g>

  <text x="1068" y="137" font-size="15" font-weight="700" fill="#6d28d9">Google Gemini APIs</text>
  <text x="1068" y="155" font-size="10.5" fill="#7c3aed">Gemini API  ·  Vertex AI</text>

  <!-- ── Gemini Live API  y=176..316 center=246 ── -->
  <rect x="980" y="176" width="728" height="140" rx="14" fill="white" stroke="#c4b5fd" stroke-width="1.5" filter="url(#card)"/>
  <rect x="980" y="176" width="728" height="38" rx="14" fill="#7c3aed"/>
  <rect x="980" y="196" width="728" height="18" fill="#7c3aed"/>
  <!-- Gemini star in header -->
  <g transform="translate(990,183)">
    <path d="M9,0 C9,0 10.5,7 16,9 C10.5,11 9,18 9,18 C9,18 7.5,11 2,9 C7.5,7 9,0 9,0 Z" fill="white" opacity="0.6"/>
  </g>
  <text x="1344" y="201" text-anchor="middle" font-size="13.5" font-weight="700" fill="white">Gemini Live API</text>
  <text x="998" y="234" font-size="11" fill="#1e293b">🎙  Real-time voice conversation</text>
  <text x="998" y="254" font-size="11" fill="#1e293b">🔄  Barge-in / interruption</text>
  <text x="998" y="274" font-size="11" fill="#1e293b">🏆  Achievement badge tool</text>
  <text x="1228" y="234" font-size="11" fill="#1e293b">📖  Story narration engine</text>
  <text x="1228" y="254" font-size="11" fill="#1e293b">🛠  generate_illustration calls</text>
  <text x="1228" y="274" font-size="11" fill="#1e293b">🎭  10 character voices</text>
  <text x="1344" y="306" text-anchor="middle" font-size="9.5" fill="#6d28d9" font-style="italic">gemini-live-2.5-flash-native-audio  ·  24 kHz native audio  ·  Vertex AI</text>

  <!-- ── Gemini Image Model  y=340..480 center=410 ── -->
  <rect x="980" y="336" width="728" height="140" rx="14" fill="white" stroke="#86efac" stroke-width="1.5" filter="url(#card)"/>
  <rect x="980" y="336" width="728" height="38" rx="14" fill="#16a34a"/>
  <rect x="980" y="356" width="728" height="18" fill="#16a34a"/>
  <g transform="translate(990,343)">
    <path d="M9,0 C9,0 10.5,7 16,9 C10.5,11 9,18 9,18 C9,18 7.5,11 2,9 C7.5,7 9,0 9,0 Z" fill="white" opacity="0.5"/>
  </g>
  <text x="1344" y="361" text-anchor="middle" font-size="13.5" font-weight="700" fill="white">Gemini Image Model</text>
  <text x="998" y="394" font-size="11" fill="#1e293b">🎨  Scene illustration generation</text>
  <text x="998" y="414" font-size="11" fill="#1e293b">⚡  Continuous scene streaming</text>
  <text x="998" y="434" font-size="11" fill="#1e293b">🖼  Prop reimagining (camera)</text>
  <text x="1228" y="394" font-size="11" fill="#1e293b">🔗  Visual continuity (prev image ref)</text>
  <text x="1228" y="414" font-size="11" fill="#1e293b">✏️  Sketch-to-illustration</text>
  <text x="1228" y="434" font-size="11" fill="#1e293b">🚀  Tool call + fallback paths</text>
  <text x="1344" y="462" text-anchor="middle" font-size="9.5" fill="#15803d" font-style="italic">gemini-3.1-flash-image-preview  ·  Gemini API</text>

  <!-- ── Gemini Flash Lite  y=496..636 center=566 ── -->
  <rect x="980" y="496" width="728" height="140" rx="14" fill="white" stroke="#fca5a5" stroke-width="1.5" filter="url(#card)"/>
  <rect x="980" y="496" width="728" height="38" rx="14" fill="#ef4444"/>
  <rect x="980" y="516" width="728" height="18" fill="#ef4444"/>
  <g transform="translate(990,503)">
    <path d="M9,0 C9,0 10.5,7 16,9 C10.5,11 9,18 9,18 C9,18 7.5,11 2,9 C7.5,7 9,0 9,0 Z" fill="white" opacity="0.5"/>
  </g>
  <text x="1344" y="521" text-anchor="middle" font-size="13.5" font-weight="700" fill="white">Gemini Flash Lite</text>
  <text x="998" y="554" font-size="11" fill="#1e293b">🛡  Content moderation</text>
  <text x="998" y="574" font-size="11" fill="#1e293b">✅  Theme &amp; sketch safety checks</text>
  <text x="998" y="594" font-size="11" fill="#1e293b">📝  Story recap generation</text>
  <text x="1228" y="554" font-size="11" fill="#1e293b">📚  Storybook title generation</text>
  <text x="1228" y="574" font-size="11" fill="#1e293b">🏷  Per-scene narration captions</text>
  <text x="1228" y="594" font-size="11" fill="#1e293b">⚡  Parallel asyncio.gather calls</text>
  <text x="1344" y="622" text-anchor="middle" font-size="9.5" fill="#dc2626" font-style="italic">gemini-2.5-flash-lite  ·  Vertex AI</text>

  <!-- ── Gemini TTS  y=656..796 center=726 ── -->
  <rect x="980" y="656" width="728" height="140" rx="14" fill="white" stroke="#fde68a" stroke-width="1.5" filter="url(#card)"/>
  <rect x="980" y="656" width="728" height="38" rx="14" fill="#d97706"/>
  <rect x="980" y="676" width="728" height="18" fill="#d97706"/>
  <g transform="translate(990,663)">
    <path d="M9,0 C9,0 10.5,7 16,9 C10.5,11 9,18 9,18 C9,18 7.5,11 2,9 C7.5,7 9,0 9,0 Z" fill="white" opacity="0.5"/>
  </g>
  <text x="1344" y="681" text-anchor="middle" font-size="13.5" font-weight="700" fill="white">Gemini TTS</text>
  <text x="998" y="714" font-size="11" fill="#1e293b">🗣  Character voice synthesis</text>
  <text x="998" y="734" font-size="11" fill="#1e293b">🌍  10 multilingual storytellers</text>
  <text x="998" y="754" font-size="11" fill="#1e293b">🔤  Language-locked voices</text>
  <text x="1228" y="714" font-size="11" fill="#1e293b">🎭  Prop &amp; sketch label speech</text>
  <text x="1228" y="734" font-size="11" fill="#1e293b">🎵  24 kHz native audio</text>
  <text x="1228" y="754" font-size="11" fill="#1e293b">📍  ThemeSelect screen TTS</text>
  <text x="1344" y="782" text-anchor="middle" font-size="9.5" fill="#92400e" font-style="italic">gemini-2.5-flash-preview-tts  ·  Gemini API</text>

  <!-- ── GCP strip inside Gemini container ── -->
  <rect x="980" y="816" width="728" height="114" rx="12" fill="#f5f3ff" stroke="#d8b4fe" stroke-width="1"/>
  <!-- Vertex AI logo in strip -->
  <g transform="translate(990,826)">
    <polygon points="12,0 24,7 24,21 12,28 0,21 0,7" fill="none" stroke="#4285f4" stroke-width="1.5"/>
    <text x="12" y="19" text-anchor="middle" font-size="12" font-weight="800" fill="#4285f4">V</text>
  </g>
  <text x="1024" y="840" font-size="10" font-weight="700" fill="#4285f4">Vertex AI</text>
  <!-- Google Cloud logo dots -->
  <g transform="translate(1090,824)">
    <circle cx="8"  cy="8"  r="5" fill="#4285f4"/>
    <circle cx="20" cy="8"  r="5" fill="#ea4335"/>
    <circle cx="14" cy="18" r="5" fill="#fbbc04"/>
    <circle cx="26" cy="18" r="5" fill="#34a853"/>
  </g>
  <text x="1124" y="840" font-size="10" font-weight="700" fill="#1a73e8">Google Cloud</text>
  <text x="1344" y="856" text-anchor="middle" font-size="10" fill="#6d28d9">Cloud Run  ·  Cloud Build CI/CD  ·  Artifact Registry  ·  Secret Manager</text>
  <text x="1344" y="873" text-anchor="middle" font-size="10" fill="#7c3aed">Application Default Credentials  ·  Single service  ·  Multi-stage Docker</text>
  <text x="1344" y="890" text-anchor="middle" font-size="9.5" fill="#9333ea" font-style="italic">Auto-deploy on push to main  ·  taleweaver.online  ·  Custom domain → Cloud Run</text>
  <text x="1344" y="907" text-anchor="middle" font-size="9.5" fill="#9333ea" font-style="italic">SIGTERM graceful shutdown  ·  uvloop  ·  h11  ·  Python 3.13  ·  Node 22</text>

  <!-- ═══════════════════════════════════════════════════════════
       USER (left of diagram, vertically centered)
  ═══════════════════════════════════════════════════════════ -->
  <circle cx="112" cy="370" r="30" fill="#dbeafe" stroke="#93c5fd" stroke-width="2" filter="url(#card)"/>
  <circle cx="112" cy="370" r="16" fill="#bfdbfe"/>
  <circle cx="104" cy="367" r="2.5" fill="#2563eb"/>
  <circle cx="120" cy="367" r="2.5" fill="#2563eb"/>
  <path d="M104,376 Q112,382 120,376" stroke="#2563eb" stroke-width="1.8" fill="none" stroke-linecap="round"/>
  <path d="M80,408 Q112,396 144,408 L140,444 L84,444 Z" fill="#dbeafe" stroke="#93c5fd" stroke-width="1.5"/>
  <rect x="92" y="444" width="40" height="28" rx="3" fill="#eff6ff" stroke="#93c5fd" stroke-width="1.5"/>
  <rect x="95" y="447" width="34" height="20" rx="2" fill="#bfdbfe"/>
  <text x="112" y="461" text-anchor="middle" font-size="13">✨</text>
  <text x="112" y="492" text-anchor="middle" font-size="15" font-weight="700" fill="#1e293b">Child</text>
  <text x="112" y="510" text-anchor="middle" font-size="11" fill="#64748b">TaleWeaver Web App</text>
  <text x="112" y="526" text-anchor="middle" font-size="11" fill="#64748b">React + Web Audio</text>

  <!-- OUTPUT Storybook box — hangs below Frontend, connected by short arrow from Frontend bottom -->
  <rect x="228" y="736" width="276" height="172" rx="16" fill="#f0fdf4" stroke="#86efac" stroke-width="2" filter="url(#card)"/>
  <text x="244" y="758" font-size="10" font-weight="700" fill="#15803d" letter-spacing="1">✨ OUTPUT</text>
  <text x="366" y="782" text-anchor="middle" font-size="14" font-weight="700" fill="#166534">Illustrated Storybook</text>
  <line x1="238" y1="790" x2="494" y2="790" stroke="#bbf7d0" stroke-width="1"/>
  <text x="366" y="810" text-anchor="middle" font-size="11" fill="#15803d">AI narration captions · Scene illustrations</text>
  <text x="366" y="830" text-anchor="middle" font-size="11" fill="#15803d">Achievement badges · Past adventures gallery</text>
  <text x="366" y="850" text-anchor="middle" font-size="11" fill="#15803d">Storybook recap view · Character voice labels</text>
  <text x="366" y="870" text-anchor="middle" font-size="11" fill="#15803d">Saved to localStorage · Shareable story cards</text>
  <text x="366" y="890" text-anchor="middle" font-size="11" fill="#15803d">Magic Camera · Sketch · Theme illustrations</text>

  <!-- ═══════════════════════════════════════════════════════════
       ALL ARROWS — STRAIGHT LINES ONLY, NO DIAGONALS
  ═══════════════════════════════════════════════════════════ -->

  <!-- 1. User → Frontend  (horizontal at y=424) -->
  <line x1="195" y1="424" x2="225" y2="424"
        stroke="#94a3b8" stroke-width="2.2" marker-end="url(#a-slate)"/>

  <!-- 2. Frontend → Backend  (horizontal at y=424) -->
  <line x1="506" y1="424" x2="529" y2="424"
        stroke="#6366f1" stroke-width="2.5" marker-end="url(#a-indigo)"/>
  <!-- label -->
  <rect x="500" y="436" width="116" height="58" rx="8" fill="white" stroke="#c7d2fe" stroke-width="1.2" filter="url(#card)"/>
  <text x="558" y="451" text-anchor="middle" font-size="9" fill="#4338ca" font-weight="700">Frontend → Backend</text>
  <line x1="506" y1="458" x2="610" y2="458" stroke="#e0e7ff" stroke-width="0.8"/>
  <text x="508" y="470" font-size="8.5" fill="#4f46e5">📡 Voice stream (16kHz PCM)</text>
  <text x="508" y="484" font-size="8.5" fill="#4f46e5">📷 Camera · Sketch · Theme</text>

  <!-- 3. Backend → Gemini Live  (horizontal at y=246) -->
  <line x1="916" y1="246" x2="977" y2="246"
        stroke="#7c3aed" stroke-width="2.5" marker-end="url(#a-violet)"/>
  <rect x="920" y="224" width="53" height="18" rx="6" fill="#f5f3ff" stroke="#c4b5fd" stroke-width="1" filter="url(#card)"/>
  <text x="947" y="236" text-anchor="middle" font-size="9" fill="#6d28d9" font-weight="600">Live voice</text>

  <!-- 4. Backend → Image Model  (horizontal at y=406) -->
  <line x1="916" y1="406" x2="977" y2="406"
        stroke="#16a34a" stroke-width="2.5" marker-end="url(#a-green)"/>
  <rect x="920" y="384" width="53" height="18" rx="6" fill="#f0fdf4" stroke="#86efac" stroke-width="1" filter="url(#card)"/>
  <text x="947" y="396" text-anchor="middle" font-size="9" fill="#15803d" font-weight="600">Illustrate</text>

  <!-- 5. Backend → Flash Lite  (horizontal at y=566) -->
  <line x1="916" y1="566" x2="977" y2="566"
        stroke="#ef4444" stroke-width="2.5" marker-end="url(#a-red)"/>
  <rect x="920" y="544" width="53" height="18" rx="6" fill="#fff1f2" stroke="#fca5a5" stroke-width="1" filter="url(#card)"/>
  <text x="947" y="556" text-anchor="middle" font-size="9" fill="#dc2626" font-weight="600">Safety/Recap</text>

  <!-- 6. Backend → TTS  (horizontal at y=726) -->
  <line x1="916" y1="726" x2="977" y2="726"
        stroke="#d97706" stroke-width="2.5" marker-end="url(#a-amber)"/>
  <rect x="920" y="704" width="53" height="18" rx="6" fill="#fffbeb" stroke="#fde68a" stroke-width="1" filter="url(#card)"/>
  <text x="947" y="716" text-anchor="middle" font-size="9" fill="#92400e" font-weight="600">Speak label</text>

  <!-- ─── RETURN PATH ───
       Gemini responses travel back:
       From Backend left (x=530) at y=510 → left to Frontend right (x=506) at y=510
       One clean short horizontal return arrow at a distinct Y level
  -->
  <!-- Backend → Frontend return (dashed, going left) -->
  <line x1="530" y1="510" x2="508" y2="510"
        stroke="#6366f1" stroke-width="2.2" stroke-dasharray="7,4"
        marker-end="url(#a-return)"/>
  <!-- label -->
  <rect x="480" y="516" width="102" height="28" rx="7" fill="white" stroke="#c7d2fe" stroke-width="1" filter="url(#card)"/>
  <text x="531" y="527" text-anchor="middle" font-size="8.5" fill="#4338ca" font-weight="600">← Gemini response</text>
  <text x="531" y="538" text-anchor="middle" font-size="8.5" fill="#4f46e5">audio · images · text</text>

  <!-- Frontend → Output Storybook (vertical downward short arrow) -->
  <line x1="366" y1="674" x2="366" y2="733"
        stroke="#16a34a" stroke-width="2.2"
        marker-end="url(#a-down)"/>
  <!-- label on the vertical arrow -->
  <rect x="370" y="696" width="88" height="18" rx="6" fill="white" stroke="#bbf7d0" stroke-width="1" filter="url(#card)"/>
  <text x="414" y="708" text-anchor="middle" font-size="8.5" fill="#15803d" font-weight="600">renders storybook</text>

  <!-- ░ FOOTER ░ -->
  <rect x="0" y="936" width="1760" height="44" fill="white" opacity="0.7"/>
  <line x1="0" y1="936" x2="1760" y2="936" stroke="#e2e8f0" stroke-width="1.5"/>
  <text x="880" y="962" text-anchor="middle" font-size="11.5" fill="#94a3b8">taleweaver.online  ·  React 19 + FastAPI + Gemini Live API  ·  Cloud Run  ·  Made for children aged 4–10</text>
</svg>
